<svg width="128" height="128" viewBox="0 0 128 128" fill="none" xmlns="http://www.w3.org/2000/svg" role="img" aria-labelledby="title desc">
  <title id="title">School Clerk development icon</title>
  <desc id="desc">A cyan development-mode School Clerk app icon with a DEV footer.</desc>
  <defs>
    <clipPath id="icon-clip">
      <rect width="128" height="128" rx="28"/>
    </clipPath>
  </defs>
  <g clip-path="url(#icon-clip)">
    <rect width="128" height="128" rx="28" fill="#ECFEFF"/>
    <path fill="#0891B2" fill-rule="evenodd" d="M64 16 18 40v11c0 3.314 2.686 6 6 6h80c3.314 0 6-2.686 6-6V40L64 16ZM32 66a6 6 0 0 0-6 6v40a6 6 0 0 0 6 6h64a6 6 0 0 0 6-6V72a6 6 0 0 0-6-6H32Zm16 14a5 5 0 0 0 0 10h32a5 5 0 0 0 0-10H48Zm0 17a5 5 0 0 0 0 10h21a5 5 0 0 0 0-10H48Zm37 0a5 5 0 1 0 0 10h1a5 5 0 1 0 0-10h-1Z"/>
    <rect y="106" width="128" height="22" fill="#164E63"/>
    <text x="64" y="122" text-anchor="middle" fill="#ECFEFF" font-family="Inter, Arial, sans-serif" font-size="12" font-weight="800" letter-spacing=".8">DEV</text>
  </g>
</svg>
