<svg xmlns="http://www.w3.org/2000/svg" width="1280" height="720" viewBox="0 0 1280 720" role="img" aria-labelledby="title desc">
  <title id="title">Crestview website template preview</title>
  <desc id="desc">Premium leadership-oriented school website layout with slate and teal styling.</desc>
  <rect width="1280" height="720" fill="#e0f2fe"/>
  <rect x="72" y="56" width="1136" height="608" rx="28" fill="#f8fafc"/>
  <rect x="112" y="96" width="1056" height="58" rx="14" fill="#0f172a"/>
  <circle cx="152" cy="125" r="18" fill="#14b8a6"/>
  <rect x="188" y="113" width="168" height="24" rx="6" fill="#ffffff"/>
  <rect x="810" y="114" width="80" height="20" rx="6" fill="#64748b"/>
  <rect x="914" y="114" width="92" height="20" rx="6" fill="#64748b"/>
  <rect x="1030" y="106" width="112" height="36" rx="8" fill="#14b8a6"/>
  <rect x="126" y="216" width="310" height="30" rx="6" fill="#14b8a6"/>
  <rect x="126" y="278" width="520" height="50" rx="8" fill="#0f172a"/>
  <rect x="126" y="344" width="392" height="50" rx="8" fill="#0f172a"/>
  <rect x="126" y="422" width="430" height="18" rx="5" fill="#94a3b8"/>
  <rect x="126" y="454" width="330" height="18" rx="5" fill="#cbd5e1"/>
  <rect x="680" y="208" width="382" height="286" rx="20" fill="#0f172a"/>
  <rect x="714" y="244" width="314" height="64" rx="12" fill="#1e293b"/>
  <rect x="714" y="332" width="228" height="26" rx="8" fill="#14b8a6"/>
  <rect x="714" y="378" width="272" height="86" rx="12" fill="#334155"/>
  <rect x="126" y="574" width="304" height="62" rx="12" fill="#ffffff"/>
  <rect x="462" y="574" width="304" height="62" rx="12" fill="#ffffff"/>
  <rect x="798" y="574" width="304" height="62" rx="12" fill="#ffffff"/>
</svg>
