<svg xmlns="http://www.w3.org/2000/svg" width="1280" height="720" viewBox="0 0 1280 720" role="img" aria-labelledby="title desc">
  <title id="title">Lyra website template preview</title>
  <desc id="desc">Colorful K-12 website layout with purple navigation, announcement cards, and a playful hero.</desc>
  <rect width="1280" height="720" fill="#fdf4ff"/>
  <rect x="72" y="56" width="1136" height="608" rx="38" fill="#ffffff"/>
  <rect x="112" y="96" width="1056" height="44" rx="22" fill="#7c3aed"/>
  <rect x="112" y="158" width="1056" height="64" rx="28" fill="#ffffff"/>
  <circle cx="154" cy="190" r="21" fill="#f97316"/>
  <rect x="190" y="178" width="156" height="24" rx="12" fill="#16213e"/>
  <rect x="804" y="180" width="84" height="20" rx="10" fill="#d8b4fe"/>
  <rect x="912" y="180" width="92" height="20" rx="10" fill="#d8b4fe"/>
  <rect x="1028" y="172" width="112" height="38" rx="19" fill="#f97316"/>
  <rect x="126" y="282" width="268" height="30" rx="15" fill="#7c3aed"/>
  <rect x="126" y="342" width="488" height="54" rx="27" fill="#16213e"/>
  <rect x="126" y="412" width="360" height="54" rx="27" fill="#16213e"/>
  <rect x="126" y="500" width="408" height="18" rx="9" fill="#c084fc"/>
  <rect x="126" y="532" width="302" height="18" rx="9" fill="#fbbf24"/>
  <rect x="666" y="270" width="416" height="276" rx="42" fill="#fae8ff"/>
  <circle cx="778" cy="382" r="78" fill="#ffffff"/>
  <rect x="870" y="326" width="144" height="126" rx="36" fill="#f97316"/>
  <rect x="126" y="594" width="260" height="42" rx="18" fill="#fff7ed"/>
  <rect x="418" y="594" width="260" height="42" rx="18" fill="#ecfeff"/>
  <rect x="710" y="594" width="260" height="42" rx="18" fill="#f5f3ff"/>
</svg>
