<svg width="640" height="180" viewBox="0 0 640 180" fill="none" xmlns="http://www.w3.org/2000/svg" role="img" aria-labelledby="title desc">
  <title id="title">School Clerk premium logo option B</title>
  <desc id="desc">A single-color folded record mark with negative-space administrative lines.</desc>
  <rect width="640" height="180" rx="24" fill="#F8FAFC"/>
  <path fill="#111827" fill-rule="evenodd" d="M63 35c-8.284 0-15 6.716-15 15v80c0 8.284 6.716 15 15 15h54c8.284 0 15-6.716 15-15V71.426a15 15 0 0 0-4.393-10.607L106.18 39.393A15 15 0 0 0 95.574 35H63Zm42 22.485V65c0 4.418 3.582 8 8 8h7.515L105 57.485ZM70 79a6 6 0 0 0 0 12h40a6 6 0 0 0 0-12H70Zm0 20a6 6 0 0 0 0 12h31a6 6 0 0 0 0-12H70Zm0 20a6 6 0 0 0 0 12h44a6 6 0 0 0 0-12H70Z"/>
  <g fill="#111827">
    <text x="184" y="84" font-family="Inter, Arial, sans-serif" font-size="42" font-weight="760">School Clerk</text>
    <text x="186" y="115" font-family="Inter, Arial, sans-serif" font-size="16" font-weight="520" opacity=".62">Folded school record</text>
  </g>
</svg>
