<svg width="1040" height="620" viewBox="0 0 1040 620" fill="none" xmlns="http://www.w3.org/2000/svg">
  <title>School Clerk dev mode icon color variants</title>
  <desc>Eight sample color variants for a development mode app icon using the current School Clerk mark.</desc>
  <rect width="1040" height="620" fill="#F8FAFC"/>
  <text x="40" y="54" fill="#111827" font-family="Inter, ui-sans-serif, system-ui, -apple-system, BlinkMacSystemFont, Segoe UI, sans-serif" font-size="26" font-weight="720">School Clerk Dev Icon Variants</text>
  <text x="40" y="84" fill="#64748B" font-family="Inter, ui-sans-serif, system-ui, -apple-system, BlinkMacSystemFont, Segoe UI, sans-serif" font-size="14">Same mark, different dev-mode color treatments. Pick a letter and I can wire it into the app assets.</text>

  <defs>
    <path id="school-clerk-mark" fill-rule="evenodd" d="M64 16 18 40v11c0 3.314 2.686 6 6 6h80c3.314 0 6-2.686 6-6V40L64 16ZM32 66a6 6 0 0 0-6 6v40a6 6 0 0 0 6 6h64a6 6 0 0 0 6-6V72a6 6 0 0 0-6-6H32Zm16 14a5 5 0 0 0 0 10h32a5 5 0 0 0 0-10H48Zm0 17a5 5 0 0 0 0 10h21a5 5 0 0 0 0-10H48Zm37 0a5 5 0 1 0 0 10h1a5 5 0 1 0 0-10h-1Z"/>
    <filter id="card-shadow" x="-20%" y="-20%" width="140%" height="140%" color-interpolation-filters="sRGB">
      <feDropShadow dx="0" dy="10" stdDeviation="16" flood-color="#0F172A" flood-opacity="0.08"/>
    </filter>
    <clipPath id="icon-clip">
      <rect width="128" height="128" rx="28"/>
    </clipPath>
  </defs>

  <g transform="translate(40 126)">
    <g filter="url(#card-shadow)">
      <rect width="220" height="202" rx="10" fill="#FFFFFF"/>
      <rect x=".5" y=".5" width="219" height="201" rx="9.5" stroke="#E2E8F0"/>
    </g>
    <g transform="translate(46 22)" clip-path="url(#icon-clip)">
      <rect width="128" height="128" rx="28" fill="#FFF7ED"/>
      <use href="#school-clerk-mark" fill="#F97316"/>
      <circle cx="106" cy="106" r="16" fill="#111827"/>
      <circle cx="106" cy="106" r="8" fill="#F97316"/>
    </g>
    <text x="22" y="174" fill="#111827" font-family="Inter, ui-sans-serif, system-ui, -apple-system, BlinkMacSystemFont, Segoe UI, sans-serif" font-size="14" font-weight="700">A. Amber Signal</text>
    <text x="22" y="193" fill="#64748B" font-family="Inter, ui-sans-serif, system-ui, -apple-system, BlinkMacSystemFont, Segoe UI, sans-serif" font-size="12">Warm, obvious, release-warning feel</text>
  </g>

  <g transform="translate(284 126)">
    <g filter="url(#card-shadow)">
      <rect width="220" height="202" rx="10" fill="#FFFFFF"/>
      <rect x=".5" y=".5" width="219" height="201" rx="9.5" stroke="#E2E8F0"/>
    </g>
    <g transform="translate(46 22)" clip-path="url(#icon-clip)">
      <rect width="128" height="128" rx="28" fill="#ECFEFF"/>
      <use href="#school-clerk-mark" fill="#0891B2"/>
      <rect x="0" y="106" width="128" height="22" fill="#164E63"/>
      <text x="64" y="122" text-anchor="middle" fill="#ECFEFF" font-family="Inter, ui-sans-serif, system-ui, -apple-system, BlinkMacSystemFont, Segoe UI, sans-serif" font-size="12" font-weight="800">DEV</text>
    </g>
    <text x="22" y="174" fill="#111827" font-family="Inter, ui-sans-serif, system-ui, -apple-system, BlinkMacSystemFont, Segoe UI, sans-serif" font-size="14" font-weight="700">B. Cyan Lab</text>
    <text x="22" y="193" fill="#64748B" font-family="Inter, ui-sans-serif, system-ui, -apple-system, BlinkMacSystemFont, Segoe UI, sans-serif" font-size="12">Crisp, technical, very distinct</text>
  </g>

  <g transform="translate(528 126)">
    <g filter="url(#card-shadow)">
      <rect width="220" height="202" rx="10" fill="#FFFFFF"/>
      <rect x=".5" y=".5" width="219" height="201" rx="9.5" stroke="#E2E8F0"/>
    </g>
    <g transform="translate(46 22)" clip-path="url(#icon-clip)">
      <rect width="128" height="128" rx="28" fill="#ECFDF5"/>
      <use href="#school-clerk-mark" fill="#059669"/>
      <path d="M0 0h34L0 34V0Z" fill="#022C22"/>
      <circle cx="17" cy="17" r="5" fill="#34D399"/>
    </g>
    <text x="22" y="174" fill="#111827" font-family="Inter, ui-sans-serif, system-ui, -apple-system, BlinkMacSystemFont, Segoe UI, sans-serif" font-size="14" font-weight="700">C. Emerald Sandbox</text>
    <text x="22" y="193" fill="#64748B" font-family="Inter, ui-sans-serif, system-ui, -apple-system, BlinkMacSystemFont, Segoe UI, sans-serif" font-size="12">Calm, safe, environment-like</text>
  </g>

  <g transform="translate(772 126)">
    <g filter="url(#card-shadow)">
      <rect width="220" height="202" rx="10" fill="#FFFFFF"/>
      <rect x=".5" y=".5" width="219" height="201" rx="9.5" stroke="#E2E8F0"/>
    </g>
    <g transform="translate(46 22)" clip-path="url(#icon-clip)">
      <rect width="128" height="128" rx="28" fill="#F5F3FF"/>
      <use href="#school-clerk-mark" fill="#7C3AED"/>
      <path d="M-20 112 112-20h36L16 128h-36Z" fill="#C4B5FD" opacity=".65"/>
    </g>
    <text x="22" y="174" fill="#111827" font-family="Inter, ui-sans-serif, system-ui, -apple-system, BlinkMacSystemFont, Segoe UI, sans-serif" font-size="14" font-weight="700">D. Violet Preview</text>
    <text x="22" y="193" fill="#64748B" font-family="Inter, ui-sans-serif, system-ui, -apple-system, BlinkMacSystemFont, Segoe UI, sans-serif" font-size="12">Polished, preview-build energy</text>
  </g>

  <g transform="translate(40 370)">
    <g filter="url(#card-shadow)">
      <rect width="220" height="202" rx="10" fill="#FFFFFF"/>
      <rect x=".5" y=".5" width="219" height="201" rx="9.5" stroke="#E2E8F0"/>
    </g>
    <g transform="translate(46 22)" clip-path="url(#icon-clip)">
      <rect width="128" height="128" rx="28" fill="#FFF1F2"/>
      <use href="#school-clerk-mark" fill="#E11D48"/>
      <rect x="88" y="0" width="40" height="128" fill="#881337"/>
      <text x="108" y="76" text-anchor="middle" fill="#FFF1F2" font-family="Inter, ui-sans-serif, system-ui, -apple-system, BlinkMacSystemFont, Segoe UI, sans-serif" font-size="13" font-weight="800" transform="rotate(90 108 76)">DEV</text>
    </g>
    <text x="22" y="174" fill="#111827" font-family="Inter, ui-sans-serif, system-ui, -apple-system, BlinkMacSystemFont, Segoe UI, sans-serif" font-size="14" font-weight="700">E. Rose QA</text>
    <text x="22" y="193" fill="#64748B" font-family="Inter, ui-sans-serif, system-ui, -apple-system, BlinkMacSystemFont, Segoe UI, sans-serif" font-size="12">Highest contrast with production</text>
  </g>

  <g transform="translate(284 370)">
    <g filter="url(#card-shadow)">
      <rect width="220" height="202" rx="10" fill="#FFFFFF"/>
      <rect x=".5" y=".5" width="219" height="201" rx="9.5" stroke="#E2E8F0"/>
    </g>
    <g transform="translate(46 22)" clip-path="url(#icon-clip)">
      <rect width="128" height="128" rx="28" fill="#F7FEE7"/>
      <use href="#school-clerk-mark" fill="#4D7C0F"/>
      <path d="M128 0v46L82 0h46Z" fill="#1A2E05"/>
      <path d="M106 10h12v12h-12zM91 10h12v12H91zM106 25h12v12h-12z" fill="#A3E635"/>
    </g>
    <text x="22" y="174" fill="#111827" font-family="Inter, ui-sans-serif, system-ui, -apple-system, BlinkMacSystemFont, Segoe UI, sans-serif" font-size="14" font-weight="700">F. Lime Canary</text>
    <text x="22" y="193" fill="#64748B" font-family="Inter, ui-sans-serif, system-ui, -apple-system, BlinkMacSystemFont, Segoe UI, sans-serif" font-size="12">Loud at tiny tab-icon scale</text>
  </g>

  <g transform="translate(528 370)">
    <g filter="url(#card-shadow)">
      <rect width="220" height="202" rx="10" fill="#FFFFFF"/>
      <rect x=".5" y=".5" width="219" height="201" rx="9.5" stroke="#E2E8F0"/>
    </g>
    <g transform="translate(46 22)" clip-path="url(#icon-clip)">
      <rect width="128" height="128" rx="28" fill="#E0F2FE"/>
      <path d="M0 128 128 0v128H0Z" fill="#0C4A6E"/>
      <use href="#school-clerk-mark" fill="#FFFFFF"/>
      <circle cx="106" cy="22" r="10" fill="#38BDF8"/>
      <circle cx="106" cy="22" r="4" fill="#FFFFFF"/>
    </g>
    <text x="22" y="174" fill="#111827" font-family="Inter, ui-sans-serif, system-ui, -apple-system, BlinkMacSystemFont, Segoe UI, sans-serif" font-size="14" font-weight="700">G. Split Build</text>
    <text x="22" y="193" fill="#64748B" font-family="Inter, ui-sans-serif, system-ui, -apple-system, BlinkMacSystemFont, Segoe UI, sans-serif" font-size="12">Most app-icon-like treatment</text>
  </g>

  <g transform="translate(772 370)">
    <g filter="url(#card-shadow)">
      <rect width="220" height="202" rx="10" fill="#FFFFFF"/>
      <rect x=".5" y=".5" width="219" height="201" rx="9.5" stroke="#E2E8F0"/>
    </g>
    <g transform="translate(46 22)" clip-path="url(#icon-clip)">
      <rect width="128" height="128" rx="28" fill="#111827"/>
      <use href="#school-clerk-mark" fill="#FBBF24"/>
      <path d="M18 18h92v16H18z" fill="#F8FAFC"/>
      <path d="M18 18h16v16H18zM50 18h16v16H50zM82 18h16v16H82z" fill="#111827"/>
    </g>
    <text x="22" y="174" fill="#111827" font-family="Inter, ui-sans-serif, system-ui, -apple-system, BlinkMacSystemFont, Segoe UI, sans-serif" font-size="14" font-weight="700">H. Dark Dev Tape</text>
    <text x="22" y="193" fill="#64748B" font-family="Inter, ui-sans-serif, system-ui, -apple-system, BlinkMacSystemFont, Segoe UI, sans-serif" font-size="12">Boldest warning/build cue</text>
  </g>
</svg>
