<svg xmlns="http://www.w3.org/2000/svg" width="1280" height="720" viewBox="0 0 1280 720" role="img" aria-labelledby="title desc">
  <title id="title">Scholaris website template preview</title>
  <desc id="desc">Academic school website layout with blue navigation, hero copy, and school cards.</desc>
  <rect width="1280" height="720" fill="#e8f1f7"/>
  <rect x="72" y="56" width="1136" height="608" rx="34" fill="#ffffff"/>
  <rect x="112" y="96" width="1056" height="56" rx="20" fill="#f8fafc"/>
  <circle cx="150" cy="124" r="18" fill="#0f4c81"/>
  <rect x="184" y="112" width="142" height="24" rx="12" fill="#0f4c81"/>
  <rect x="826" y="114" width="66" height="20" rx="10" fill="#cbd5e1"/>
  <rect x="916" y="114" width="86" height="20" rx="10" fill="#cbd5e1"/>
  <rect x="1026" y="106" width="106" height="36" rx="18" fill="#f59e0b"/>
  <rect x="122" y="216" width="436" height="38" rx="19" fill="#f59e0b"/>
  <rect x="122" y="282" width="478" height="42" rx="21" fill="#0f4c81"/>
  <rect x="122" y="340" width="340" height="42" rx="21" fill="#0f4c81"/>
  <rect x="122" y="418" width="390" height="18" rx="9" fill="#94a3b8"/>
  <rect x="122" y="450" width="320" height="18" rx="9" fill="#cbd5e1"/>
  <rect x="122" y="512" width="140" height="44" rx="22" fill="#0f4c81"/>
  <rect x="630" y="204" width="460" height="314" rx="34" fill="#dbeafe"/>
  <circle cx="742" cy="330" r="72" fill="#ffffff" opacity=".85"/>
  <rect x="834" y="274" width="180" height="144" rx="28" fill="#0f4c81" opacity=".82"/>
  <rect x="122" y="590" width="240" height="46" rx="18" fill="#eff6ff"/>
  <rect x="392" y="590" width="240" height="46" rx="18" fill="#fff7ed"/>
  <rect x="662" y="590" width="240" height="46" rx="18" fill="#f8fafc"/>
</svg>
